<?xml version="1.0" encoding="UTF-8"?>
<!DOCTYPE svg PUBLIC "-//W3C//DTD SVG 1.1//EN" "http://www.w3.org/Graphics/SVG/1.1/DTD/svg11.dtd">
<!-- Creator: CorelDRAW -->
<svg xmlns="http://www.w3.org/2000/svg" xml:space="preserve" width="512px" height="512px" version="1.1" style="shape-rendering:geometricPrecision; text-rendering:geometricPrecision; image-rendering:optimizeQuality; fill-rule:evenodd; clip-rule:evenodd"
viewBox="0 0 512 512"
 xmlns:xlink="http://www.w3.org/1999/xlink">
 <defs>
  <style type="text/css">
   <![CDATA[
    .fil0 {fill:black}
   ]]>
  </style>
 </defs>
 <g id="Layer_x0020_1">
  <metadata id="CorelCorpID_0Corel-Layer"/>
  <g id="_699745096">
   <path class="fil0" d="M474 474l-398 0c-5,0 -8,-3 -8,-7l0 -459c0,-5 3,-8 8,-8l398 0c4,0 7,3 7,8l0 459c0,4 -3,7 -7,7zm-41 -58l-158 0c-5,0 -8,-3 -8,-7 0,-4 3,-8 8,-8l158 0c4,0 7,4 7,8 0,4 -3,7 -7,7zm0 -57l-317 0c-4,0 -7,-3 -7,-7 0,-4 3,-8 7,-8l317 0c4,0 7,4 7,8 0,4 -3,7 -7,7zm0 -57l-317 0c-4,0 -7,-4 -7,-8 0,-4 3,-7 7,-7l317 0c4,0 7,3 7,7 0,4 -3,8 -7,8zm0 -58l-317 0c-4,0 -7,-3 -7,-7 0,-4 3,-8 7,-8l317 0c4,0 7,4 7,8 0,4 -3,7 -7,7zm0 -57l-317 0c-4,0 -7,-3 -7,-7 0,-4 3,-8 7,-8l317 0c4,0 7,4 7,8 0,4 -3,7 -7,7zm0 -57l-192 0c-4,0 -7,-3 -7,-8 0,-4 3,-7 7,-7l192 0c4,0 7,3 7,7 0,5 -3,8 -7,8zm0 -57l-192 0c-4,0 -7,-3 -7,-7 0,-4 3,-8 7,-8l192 0c4,0 7,4 7,8 0,4 -3,7 -7,7zm-241 75l-76 0c-4,0 -7,-4 -7,-8l0 -87c0,-4 3,-7 7,-7l76 0c4,0 7,3 7,7l0 87c0,5 -3,8 -7,8zm-68 -15l61 0 0 -72 -61 0 0 72z"/>
   <path class="fil0" d="M159 512l-121 0c-4,0 -7,-3 -7,-8l0 -239c0,-4 3,-8 7,-8 4,0 8,4 8,8l0 232 114 0c4,0 7,4 7,8 0,4 -4,7 -8,7z"/>
  </g>
 </g>
</svg>
